# Alias OBJ Model File
# Exported from SketchUp, (c) 2000-2012 Trimble Navigation Limited
# File units = meters

mtllib Link.mtl

g Mesh1 Model

usemtl FrontColor
v -0.24 0 -0.17
vt -9.44882 0
vn 0 0 1
v 0.26 0 -0.17
vt 10.2362 0
v 0.26 0.15 -0.17
vt 10.2362 5.90551
v -0.24 0.15 -0.17
vt -9.44882 5.90551
f 1/1/1 2/2/1 3/3/1 4/4/1 

vt 9.44882 6.69291
vn 0 -1 -0
v 0.41 0 -0.318703
vt -16.1417 12.5474
vt -10.2362 6.69291
f 1/5/2 5/6/2 2/7/2

v -0.39 0 -0.318703
vt 15.3543 12.5474
f 1/5/2 6/8/2 5/6/2

v -0.39 0 0.33
vt 15.3543 -12.9921
f 6/8/2 1/5/2 7/9/2

v -0.24 0 0.181297
vt 9.44882 -7.13766
f 8/10/2 7/9/2 1/5/2

v 0.41 0 0.33
vt -16.1417 -12.9921
f 7/9/2 8/10/2 9/11/2

v 0.26 0 0.181297
vt -10.2362 -7.13766
f 9/11/2 8/10/2 10/12/2

vt -10.2362 0
vn 0 0 -1
vt 9.44882 0
v -0.24 0.15 0.181297
vt 9.44882 5.90551
v 0.26 0.15 0.181297
vt -10.2362 5.90551
f 10/13/3 8/14/3 11/15/3 12/16/3 

vt -7.13766 0
vn 1 0 -0
vt 6.69291 0
vt 6.69291 5.90551
vt -7.13766 5.90551
f 8/17/4 1/18/4 4/19/4 11/20/4 

vt -9.44882 6.69291
vn 0 1 -0
v -0.39 0.15 -0.318703
vt -15.3543 12.5474
vt -9.44882 -7.13766
f 4/21/5 13/22/5 11/23/5

v 0.41 0.15 -0.318703
vt 16.1417 12.5474
f 13/22/5 4/21/5 14/24/5

vt 10.2362 6.69291
f 14/24/5 4/21/5 3/25/5

v 0.41 0.15 0.33
vt 16.1417 -12.9921
f 14/24/5 3/25/5 15/26/5

vt 10.2362 -7.13766
f 12/27/5 15/26/5 3/25/5

f 11/23/5 15/26/5 12/27/5

v -0.39 0.15 0.33
vt -15.3543 -12.9921
f 11/23/5 16/28/5 15/26/5

f 16/28/5 11/23/5 13/22/5

vt -12.5474 0
vn -1 0 -0
vt 12.9921 0
vt 12.9921 5.90551
vt -12.5474 5.90551
f 6/29/6 7/30/6 16/31/6 13/32/6 

vt -15.3543 0
vt 16.1417 0
vt 16.1417 5.90551
vt -15.3543 5.90551
f 7/33/1 9/34/1 15/35/1 16/36/1 

vt -12.9921 0
vt 12.5474 0
vt 12.5474 5.90551
vt -12.9921 5.90551
f 9/37/4 5/38/4 14/39/4 15/40/4 

f 9/11/2 10/12/2 5/6/2

f 2/7/2 5/6/2 10/12/2

vt -6.69291 0
vt 7.13766 0
vt 7.13766 5.90551
vt -6.69291 5.90551
f 2/41/6 10/42/6 12/43/6 3/44/6 

vt -16.1417 0
vt 15.3543 0
vt 15.3543 5.90551
vt -16.1417 5.90551
f 5/45/3 6/46/3 13/47/3 14/48/3 

